<?xml version="1.0" standalone="no"?>
<!DOCTYPE svg PUBLIC "-//W3C//DTD SVG 20010904//EN"
 "http://www.w3.org/TR/2001/REC-SVG-20010904/DTD/svg10.dtd">
<svg version="1.0" xmlns="http://www.w3.org/2000/svg"
 width="988.000000pt" height="988.000000pt" viewBox="0 0 988.000000 988.000000"
 preserveAspectRatio="xMidYMid meet">
<metadata>
Created by potrace 1.14, written by Peter Selinger 2001-2017
</metadata>
<g transform="translate(0.000000,988.000000) scale(0.100000,-0.100000)"
fill="#000000" stroke="none">
<path d="M2475 8079 c-108 -15 -242 -75 -344 -155 -41 -32 -68 -60 -65 -66 4
-6 3 -8 -3 -5 -22 14 -143 -141 -192 -248 -80 -172 -81 -190 -81 -1285 0 -631
3 -956 10 -958 6 -2 8 -7 5 -12 -3 -5 76 -7 175 -5 l180 2 37 29 c21 15 41 32
44 37 3 5 9 -6 13 -23 3 -18 6 -559 6 -1203 0 -644 2 -1168 4 -1166 3 3 6 599
7 1326 l1 1321 22 6 c11 3 330 6 707 6 l685 0 85 -81 c459 -441 978 -645 1639
-643 118 1 260 6 315 13 496 60 958 264 1255 554 41 40 86 90 100 109 23 34
28 37 86 40 35 2 103 2 153 0 l90 -3 4 -197 c5 -214 6 -224 19 -216 11 7 10
-3 -3 -29 -9 -20 -9 -21 4 -4 14 17 16 17 30 -4 9 -12 13 -29 10 -38 -4 -13
-3 -13 5 -2 9 12 13 12 27 -2 9 -9 28 -20 42 -23 14 -4 20 -9 15 -13 -6 -3 11
-6 38 -6 26 0 46 3 43 8 -4 7 18 11 52 9 11 -1 15 1 10 5 -7 5 5 22 29 43 22
19 36 28 31 20 -5 -9 -5 -12 1 -7 5 5 9 12 9 15 1 4 4 16 7 27 3 11 9 37 13
58 5 33 9 37 36 37 17 0 43 9 57 21 l27 21 5 -69 c13 -177 21 347 17 1142 -4
934 -3 915 -62 1070 -48 129 -93 199 -195 301 -77 78 -155 133 -253 180 -151
71 35 66 -2562 68 -1287 1 -2362 -1 -2390 -5z m3074 -497 c145 -53 278 -167
342 -294 23 -46 52 -97 64 -114 13 -17 41 -64 62 -105 30 -59 63 -100 163
-199 146 -147 190 -216 256 -404 61 -176 125 -441 138 -576 l12 -115 -66 -38
c-327 -193 -652 -284 -1055 -294 -420 -11 -738 67 -1089 269 -187 106 -239
149 -452 366 l-102 103 -708 -1 c-390 0 -738 -3 -774 -6 l-65 -6 3 488 c3 541
7 589 64 696 36 68 129 157 202 195 26 13 80 33 120 43 68 18 128 19 1446 17
l1375 -2 64 -23z m1436 19 c103 -12 168 -34 230 -79 27 -19 55 -35 62 -35 6 0
11 -3 10 -6 -1 -3 18 -32 41 -63 24 -31 53 -81 65 -110 22 -52 22 -64 25 -590
l2 -538 -202 0 -203 0 -43 166 c-105 409 -286 726 -530 926 -81 67 -212 155
-272 183 l-36 17 41 45 c39 44 76 69 125 84 36 11 590 11 685 0z"/>
<path d="M7814 5332 c4 -7 3 -12 -2 -12 -6 0 -12 -15 -14 -34 -3 -28 -1 -33
10 -27 17 10 24 68 9 78 -6 3 -7 1 -3 -5z"/>
<path d="M1791 5194 c0 -11 3 -14 6 -6 3 7 2 16 -1 19 -3 4 -6 -2 -5 -13z"/>
<path d="M7740 5190 c-9 -6 -10 -10 -3 -10 6 0 15 5 18 10 8 12 4 12 -15 0z"/>
<path d="M7423 5115 c0 -27 2 -38 4 -22 2 15 2 37 0 50 -2 12 -4 0 -4 -28z"/>
<path d="M7421 4954 c0 -11 3 -14 6 -6 3 7 2 16 -1 19 -3 4 -6 -2 -5 -13z"/>
<path d="M7423 4820 c0 -25 2 -35 4 -22 2 12 2 32 0 45 -2 12 -4 2 -4 -23z"/>
<path d="M7924 4700 c0 -91 2 -128 3 -82 2 45 2 119 0 165 -1 45 -3 8 -3 -83z"/>
<path d="M3527 4754 c-133 -29 -255 -100 -346 -199 -103 -114 -145 -194 -177
-343 -29 -135 2 -219 97 -267 53 -28 76 -30 132 -14 59 16 98 64 151 188 55
126 99 179 181 217 83 39 147 26 215 -45 51 -52 64 -87 80 -215 16 -132 49
-185 143 -226 56 -25 103 -20 160 17 117 75 113 325 -9 581 -43 89 -162 213
-246 255 -114 58 -263 78 -381 51z"/>
<path d="M6014 4759 c-126 -16 -190 -42 -286 -116 -57 -44 -127 -132 -166
-208 -58 -116 -90 -305 -72 -417 14 -83 42 -126 101 -157 44 -24 49 -24 104
-12 64 14 122 59 149 115 8 18 24 78 35 133 11 56 29 119 40 141 40 79 175
138 257 112 111 -35 165 -95 229 -253 20 -49 46 -103 58 -122 72 -111 259
-100 316 18 83 170 -77 501 -320 662 -84 56 -140 80 -233 100 -81 16 -116 17
-212 4z"/>
<path d="M7422 4600 c0 -14 2 -19 5 -12 2 6 2 18 0 25 -3 6 -5 1 -5 -13z"/>
<path d="M7425 4060 c0 -212 1 -298 2 -192 2 105 2 279 0 385 -1 105 -2 19 -2
-193z"/>
<path d="M7924 4140 c0 -135 2 -190 3 -122 2 67 2 177 0 245 -1 67 -3 12 -3
-123z"/>
<path d="M7922 3840 c0 -14 2 -19 5 -12 2 6 2 18 0 25 -3 6 -5 1 -5 -13z"/>
<path d="M960 3787 c-57 -38 -74 -79 -78 -189 -6 -139 2 -182 45 -229 91 -101
259 -63 278 62 4 25 5 100 3 167 -3 119 -4 121 -33 152 -42 45 -76 60 -133 60
-34 0 -59 -7 -82 -23z"/>
<path d="M8625 3803 c-47 -11 -83 -51 -94 -103 -22 -102 -10 -296 20 -324 9
-8 10 -8 4 3 -5 9 -4 12 3 7 6 -4 9 -12 7 -19 -3 -7 9 -20 26 -30 95 -54 214
-18 254 76 24 57 19 287 -5 272 -5 -3 -6 3 -3 13 6 24 -37 75 -81 96 -33 15
-88 19 -131 9z"/>
<path d="M3390 3780 c-134 -17 -247 -79 -287 -160 -18 -35 -23 -61 -23 -123 0
-92 19 -138 77 -186 58 -48 119 -62 288 -68 221 -8 319 22 382 118 23 35 28
54 31 128 4 76 1 93 -18 132 -50 97 -156 152 -310 162 -41 3 -104 1 -140 -3z"/>
<path d="M6145 3766 c-54 -13 -128 -47 -160 -74 -55 -46 -78 -104 -76 -197 0
-69 19 -112 71 -169 46 -50 94 -70 199 -84 85 -12 331 4 378 23 101 43 147
111 147 220 -1 167 -110 263 -324 286 -110 11 -173 10 -235 -5z"/>
<path d="M4358 3730 c-155 -47 -173 -232 -41 -432 116 -176 317 -289 518 -289
137 -1 308 66 434 168 58 49 136 155 162 223 68 180 -28 343 -192 328 -64 -7
-116 -44 -178 -127 -92 -123 -144 -161 -219 -161 -76 1 -149 53 -221 158 -87
127 -160 163 -263 132z"/>
<path d="M7923 3695 c0 -22 2 -30 4 -17 2 12 2 30 0 40 -3 9 -5 -1 -4 -23z"/>
<path d="M7423 3620 c0 -25 2 -35 4 -22 2 12 2 32 0 45 -2 12 -4 2 -4 -23z"/>
<path d="M7923 3595 c0 -27 2 -38 4 -22 2 15 2 37 0 50 -2 12 -4 0 -4 -28z"/>
<path d="M7424 3360 c0 -80 2 -112 3 -72 2 39 2 105 0 145 -1 39 -3 7 -3 -73z"/>
<path d="M7924 3380 c0 -69 1 -97 3 -62 2 34 2 90 0 125 -2 34 -3 6 -3 -63z"/>
<path d="M2271 2954 c0 -11 3 -14 6 -6 3 7 2 16 -1 19 -3 4 -6 -2 -5 -13z"/>
<path d="M8641 2946 c-43 -15 -99 -79 -105 -120 -3 -17 -7 -152 -10 -301 -4
-249 -6 -278 -30 -370 -25 -99 -77 -232 -128 -331 -37 -70 -163 -238 -231
-306 -30 -31 -52 -59 -49 -63 4 -4 0 -5 -8 -3 -8 2 -14 -3 -13 -9 2 -7 -1 -12
-5 -10 -4 1 -35 -17 -67 -41 -33 -23 -79 -55 -102 -69 -23 -15 -40 -29 -38
-33 2 -3 -4 -6 -13 -7 -9 0 -55 -17 -102 -36 -47 -20 -128 -48 -180 -64 l-95
-27 -775 -6 -775 -5 -31 -22 c-60 -43 -81 -149 -45 -229 23 -51 90 -108 144
-123 31 -9 236 -11 772 -9 l730 4 100 26 c368 98 588 219 820 453 133 133 204
227 293 388 108 195 174 405 193 615 16 184 9 558 -12 597 -8 17 -21 29 -28
27 -7 -1 -10 2 -6 8 7 12 -40 59 -73 71 -32 12 -90 10 -131 -5z"/>
<path d="M965 2935 c-47 -26 -73 -54 -91 -101 -14 -38 -16 -82 -11 -356 5
-348 13 -401 83 -607 59 -172 145 -325 279 -496 86 -109 199 -220 216 -210 7
5 10 4 5 -3 -4 -6 24 -33 66 -64 89 -66 104 -75 94 -60 -5 8 -2 10 9 6 9 -4
13 -9 10 -12 -10 -10 33 -32 52 -26 12 4 14 3 6 -3 -16 -11 102 -78 118 -67 7
4 9 3 6 -3 -9 -15 189 -96 235 -97 21 0 32 -4 25 -8 -7 -4 -10 -8 -7 -8 3 0
70 -14 150 -30 l145 -30 690 0 690 0 51 24 c149 69 167 259 32 336 l-43 25
-735 6 -735 5 -90 26 c-135 39 -220 73 -318 128 -49 27 -94 47 -101 43 -6 -3
-8 -3 -4 2 4 4 -20 28 -55 53 -81 60 -215 199 -277 288 -67 97 -154 279 -185
389 -43 149 -55 249 -61 475 -6 262 -13 295 -64 345 -35 34 -46 39 -97 42 -40
3 -67 -1 -88 -12z m785 -1939 c0 -2 -7 -7 -16 -10 -8 -3 -12 -2 -9 4 6 10 25
14 25 6z m105 -84 c-3 -3 -11 0 -18 7 -9 10 -8 11 6 5 10 -3 15 -9 12 -12z"/>
<path d="M7923 2880 c0 -30 2 -43 4 -27 2 15 2 39 0 55 -2 15 -4 2 -4 -28z"/>
<path d="M2281 2904 c0 -11 3 -14 6 -6 3 7 2 16 -1 19 -3 4 -6 -2 -5 -13z"/>
<path d="M2292 2860 c0 -14 2 -19 5 -12 2 6 2 18 0 25 -3 6 -5 1 -5 -13z"/>
<path d="M2301 2814 c0 -11 3 -14 6 -6 3 7 2 16 -1 19 -3 4 -6 -2 -5 -13z"/>
<path d="M1811 2764 c0 -11 3 -14 6 -6 3 7 2 16 -1 19 -3 4 -6 -2 -5 -13z"/>
<path d="M7905 2740 c-4 -23 -5 -43 -2 -46 2 -3 7 14 11 37 4 23 5 44 2 46 -2
2 -7 -14 -11 -37z"/>
<path d="M1820 2716 c0 -8 4 -17 9 -20 5 -4 7 3 4 14 -6 23 -13 26 -13 6z"/>
<path d="M7886 2649 c-8 -42 0 -50 9 -9 4 17 5 34 2 36 -2 3 -7 -10 -11 -27z"/>
<path d="M2400 2623 c0 -6 9 -22 20 -35 10 -14 16 -29 12 -32 -4 -4 0 -6 8 -4
8 2 14 -3 13 -9 -2 -7 2 -13 7 -13 16 0 12 8 -25 57 -19 25 -35 41 -35 36z"/>
<path d="M7866 2575 c-9 -26 -7 -32 5 -12 6 10 9 21 6 23 -2 3 -7 -2 -11 -11z"/>
<path d="M7241 2517 c-13 -21 -12 -21 5 -5 10 10 16 20 13 22 -3 3 -11 -5 -18
-17z"/>
<path d="M2480 2513 c0 -5 18 -22 39 -38 26 -20 38 -36 35 -48 -3 -16 -1 -17
12 -6 8 7 11 15 7 19 -4 4 -27 24 -50 45 -24 20 -43 33 -43 28z"/>
<path d="M2588 2413 c6 -2 10 -9 7 -14 -4 -5 2 -6 11 -2 13 5 15 3 9 -7 -5 -8
-4 -11 2 -7 5 3 22 -5 38 -19 15 -13 33 -24 38 -24 6 0 -14 18 -43 40 -29 22
-58 40 -64 39 -6 0 -5 -3 2 -6z"/>
<path d="M7787 2390 c-3 -11 -3 -20 -1 -20 2 0 8 9 14 20 6 11 7 20 2 20 -6 0
-12 -9 -15 -20z"/>
<path d="M2722 2327 c10 -8 14 -18 10 -22 -4 -5 -2 -5 5 -1 7 4 24 -1 37 -10
14 -9 30 -14 36 -12 6 2 -15 16 -47 31 -32 15 -50 21 -41 14z"/>
<path d="M7757 2333 c-4 -3 -7 -11 -7 -17 0 -6 5 -5 12 2 6 6 9 14 7 17 -3 3
-9 2 -12 -2z"/>
<path d="M7735 2289 c-4 -6 -5 -12 -2 -15 2 -3 7 2 10 11 7 17 1 20 -8 4z"/>
<path d="M2855 2260 c-3 -5 1 -10 9 -10 9 0 16 5 16 10 0 6 -4 10 -9 10 -6 0
-13 -4 -16 -10z"/>
<path d="M2903 2253 c9 -2 14 -9 11 -15 -4 -7 -2 -8 5 -4 15 10 4 26 -17 25
-15 -1 -15 -2 1 -6z"/>
<path d="M6788 2243 c6 -2 18 -2 25 0 6 3 1 5 -13 5 -14 0 -19 -2 -12 -5z"/>
<path d="M2798 2233 c6 -2 18 -2 25 0 6 3 1 5 -13 5 -14 0 -19 -2 -12 -5z"/>
<path d="M2858 2233 c7 -3 16 -2 19 1 4 3 -2 6 -13 5 -11 0 -14 -3 -6 -6z"/>
<path d="M6728 2233 c7 -3 16 -2 19 1 4 3 -2 6 -13 5 -11 0 -14 -3 -6 -6z"/>
<path d="M2998 2223 c7 -3 16 -2 19 1 4 3 -2 6 -13 5 -11 0 -14 -3 -6 -6z"/>
<path d="M3058 2223 c7 -3 16 -2 19 1 4 3 -2 6 -13 5 -11 0 -14 -3 -6 -6z"/>
<path d="M6663 2223 c9 -2 23 -2 30 0 6 3 -1 5 -18 5 -16 0 -22 -2 -12 -5z"/>
<path d="M3115 2210 c11 -5 34 -9 52 -9 17 -1 35 -5 38 -11 3 -5 27 -9 53 -9
46 2 46 2 12 9 l-35 7 38 2 c20 0 37 -4 37 -10 0 -6 22 -10 53 -10 324 3 419
1 429 -6 7 -4 66 -8 131 -9 97 -2 117 1 117 13 0 12 21 14 138 8 75 -3 150
-11 165 -17 21 -8 55 -8 133 2 78 9 109 9 117 1 15 -15 74 -14 80 2 5 16 703
15 720 -2 15 -15 70 -14 85 1 9 9 97 13 321 15 264 3 309 2 314 -11 4 -9 14
-12 26 -9 12 3 19 8 17 12 -2 3 64 4 147 2 84 -2 173 1 201 7 28 6 71 15 96
20 28 6 -611 10 -1730 10 -998 0 -1766 -3 -1755 -8z"/>
<path d="M7649 2173 c-13 -16 -12 -17 4 -4 16 13 21 21 13 21 -2 0 -10 -8 -17
-17z"/>
<path d="M7539 2053 c-13 -16 -12 -17 4 -4 16 13 21 21 13 21 -2 0 -10 -8 -17
-17z"/>
<path d="M7435 1970 c-3 -6 1 -7 9 -4 18 7 21 14 7 14 -6 0 -13 -4 -16 -10z"/>
<path d="M7364 1924 c-18 -14 -18 -14 6 -3 31 14 36 19 24 19 -6 0 -19 -7 -30
-16z"/>
<path d="M2440 1886 c0 -3 9 -10 20 -16 11 -6 20 -8 20 -6 0 3 -9 10 -20 16
-11 6 -20 8 -20 6z"/>
<path d="M7260 1860 c-9 -6 -10 -10 -3 -10 6 0 15 5 18 10 8 12 4 12 -15 0z"/>
<path d="M7190 1840 c-19 -10 -50 -24 -68 -31 -18 -6 -31 -13 -29 -15 5 -5
106 33 121 45 7 6 17 7 21 3 5 -4 5 -1 1 6 -4 6 -8 12 -9 12 -1 -1 -18 -9 -37
-20z"/>
<path d="M6978 1763 c7 -3 16 -2 19 1 4 3 -2 6 -13 5 -11 0 -14 -3 -6 -6z"/>
<path d="M2978 1723 c7 -3 16 -2 19 1 4 3 -2 6 -13 5 -11 0 -14 -3 -6 -6z"/>
<path d="M6728 1723 c7 -3 16 -2 19 1 4 3 -2 6 -13 5 -11 0 -14 -3 -6 -6z"/>
<path d="M3183 1713 c43 -2 110 -2 150 0 40 1 5 3 -78 3 -82 0 -115 -2 -72 -3z"/>
<path d="M3633 1713 c48 -2 125 -2 170 0 45 1 6 3 -88 3 -93 0 -130 -2 -82 -3z"/>
<path d="M3908 1713 c12 -2 30 -2 40 0 9 3 -1 5 -23 4 -22 0 -30 -2 -17 -4z"/>
<path d="M4118 1713 c45 -2 119 -2 165 0 45 1 8 3 -83 3 -91 0 -128 -2 -82 -3z"/>
<path d="M4553 1713 c26 -2 67 -2 90 0 23 2 2 3 -48 3 -49 0 -68 -1 -42 -3z"/>
<path d="M4918 1713 c45 -2 119 -2 165 0 45 1 8 3 -83 3 -91 0 -128 -2 -82 -3z"/>
<path d="M5468 1713 c45 -2 119 -2 165 0 45 1 8 3 -83 3 -91 0 -128 -2 -82 -3z"/>
<path d="M5838 1713 c23 -2 59 -2 80 0 20 2 1 4 -43 4 -44 0 -61 -2 -37 -4z"/>
<path d="M6188 1713 c45 -2 119 -2 165 0 45 1 8 3 -83 3 -91 0 -128 -2 -82 -3z"/>
<path d="M6538 1713 c18 -2 45 -2 60 0 15 2 0 4 -33 4 -33 0 -45 -2 -27 -4z"/>
</g>
</svg>
